<?xml version="1.0" encoding="UTF-8" standalone="yes"?>
<!DOCTYPE svg PUBLIC "-//W3C//DTD SVG 1.1//EN" "http://www.w3.org/Graphics/SVG/1.1/DTD/svg11.dtd">

<svg width="1211" height="429" viewBox="0 0 1211 429" xmlns="http://www.w3.org/2000/svg" xmlns:xlink="http://www.w3.org/1999/xlink" version="1.1" baseProfile="full">
    <g transform="scale(1,-1) translate(0,-429)">
        <path d="M 514.690900 110.120500 L 509.918400 110.148700 L 514.682100 110.070400 Z M 402.723900 109.768500 L 402.739800 109.803900 L 390.826500 109.591400 L 390.818800 109.572900 Z M 545.311500 109.585000 L 540.381100 109.672900 L 540.376700 109.648200 L 545.308400 109.567100 Z M 356.861400 108.658500 L 356.892300 108.778600 L 356.400000 108.763800 L 356.371200 108.644900 Z M 616.412700 107.526000 L 606.596600 107.945900 L 597.605800 108.216100 L 597.565700 107.994600 L 616.365000 107.253800 Z M 325.010500 107.521400 L 326.554100 107.719700 L 327.062900 107.855300 L 322.350300 107.653700 L 322.316200 107.459900 L 323.240000 107.459900 Z M 296.406700 106.120200 L 296.481500 106.547300 L 286.325900 106.112900 L 284.074000 105.986100 L 284.158400 105.484800 Z M 669.962800 104.958200 L 649.452000 106.112900 L 641.983100 106.432400 L 641.905300 105.988700 L 655.576300 105.279600 L 669.855400 104.345600 Z M 712.059700 102.267300 L 695.459800 103.445800 L 695.306500 102.571000 L 711.879100 101.236600 Z M 234.050600 102.054100 L 234.546400 103.036000 L 225.727600 102.409900 L 225.237200 101.344400 Z M 515.580600 1.653500 L 561.894700 2.479600 L 606.596600 3.822800 L 649.452000 5.655900 L 690.226300 7.951400 L 728.685000 10.681900 L 746.972900 12.201700 L 764.593900 13.820000 L 781.518800 15.533400 L 797.718200 17.338400 L 813.163000 19.231500 L 827.823700 21.209500 L 841.671100 23.268800 L 854.675800 25.406000 L 866.808600 27.617800 L 878.040100 29.900600 L 888.341100 32.251100 L 897.682100 34.665700 L 906.034000 37.141200 L 913.367400 39.674100 L 919.652900 42.260900 L 924.861400 44.898300 L 927.052600 46.234800 L 928.963500 47.582700 L 930.590400 48.941500 L 931.929800 50.310800 L 932.977900 51.690200 L 933.731100 53.079200 L 934.185600 54.477400 L 934.338000 55.884400 L 934.185600 57.291400 L 933.731100 58.689600 L 932.977900 60.078600 L 931.929800 61.458000 L 930.590400 62.827300 L 928.963500 64.186100 L 927.052600 65.534000 L 924.861400 66.870500 L 919.652900 69.507900 L 913.367400 72.094700 L 906.034000 74.627600 L 897.682100 77.103000 L 888.341100 79.517700 L 878.040100 81.868200 L 866.808600 84.151000 L 854.675800 86.362700 L 841.671100 88.500000 L 827.823700 90.559300 L 813.163000 92.537200 L 797.718200 94.430400 L 781.518800 96.235400 L 764.593900 97.948700 L 763.788300 98.022700 L 763.413300 95.953500 L 771.730000 94.968200 L 783.419300 93.366600 L 794.397300 91.704400 L 804.639300 89.984200 L 814.120500 88.208800 L 822.816100 86.380700 L 830.701400 84.502700 L 837.751600 82.577400 L 843.942200 80.607400 L 849.248200 78.595600 L 853.644900 76.544400 L 857.107700 74.456600 L 858.481100 73.399700 L 859.611700 72.334800 L 860.496500 71.262000 L 861.132300 70.181700 L 861.516000 69.094200 L 861.644600 68.000000 L 861.516000 66.905700 L 861.132300 65.818200 L 860.496500 64.737900 L 859.611700 63.665100 L 858.481100 62.600200 L 857.107700 61.543300 L 853.644900 59.455500 L 849.248200 57.404300 L 843.942200 55.392500 L 837.751600 53.422500 L 830.701400 51.497200 L 822.816100 49.619200 L 814.120500 47.791100 L 804.639300 46.015700 L 794.397300 44.295500 L 783.419300 42.633300 L 771.730000 41.031700 L 746.316300 38.020900 L 718.354100 35.284600 L 688.041500 32.843900 L 655.576300 30.720300 L 621.156400 28.934900 L 584.979800 27.509300 L 547.244400 26.464600 L 508.148200 25.822100 L 467.888900 25.603200 L 427.629700 25.822100 L 388.533400 26.464600 L 350.798000 27.509300 L 343.540500 27.795300 L 293.770300 5.337500 L 329.181300 3.822800 L 373.883200 2.479600 L 420.197200 1.653500 L 467.888900 1.372100 Z M 231.283500 34.168600 L 217.423800 35.284600 L 189.461600 38.020900 L 164.047900 41.031700 L 152.358600 42.633300 L 141.380500 44.295500 L 131.138600 46.015700 L 121.657400 47.791100 L 112.961800 49.619200 L 105.076500 51.497200 L 98.026200 53.422500 L 91.835700 55.392500 L 86.529700 57.404300 L 82.133000 59.455500 L 78.670200 61.543300 L 77.296800 62.600200 L 76.166200 63.665100 L 75.281400 64.737900 L 74.645600 65.818200 L 74.261900 66.905700 L 74.133200 68.000000 L 74.261900 69.094200 L 74.645600 70.181700 L 75.281400 71.262000 L 76.166200 72.334800 L 77.296800 73.399700 L 78.670200 74.456600 L 82.133000 76.544400 L 86.529700 78.595600 L 91.835700 80.607400 L 98.026200 82.577400 L 105.076500 84.502700 L 112.961800 86.380700 L 121.657400 88.208800 L 131.138600 89.984200 L 141.380500 91.704400 L 152.358600 93.366600 L 164.047900 94.968200 L 165.697400 95.163600 L 166.095100 97.433500 L 154.259100 96.235400 L 138.059700 94.430400 L 122.614900 92.537200 L 107.954200 90.559300 L 94.106800 88.500000 L 81.102100 86.362700 L 68.969300 84.151000 L 57.737800 81.868200 L 47.436800 79.517700 L 38.095800 77.103000 L 29.743900 74.627600 L 22.410500 72.094700 L 16.124900 69.507900 L 10.916500 66.870500 L 8.725300 65.534000 L 6.814400 64.186100 L 5.187500 62.827300 L 3.848100 61.458000 L 2.800000 60.078600 L 2.046800 58.689600 L 1.592200 57.291400 L 1.439900 55.884400 L 1.592200 54.477400 L 2.046800 53.079200 L 2.800000 51.690200 L 3.848100 50.310800 L 5.187500 48.941500 L 6.814400 47.582700 L 8.725300 46.234800 L 10.916500 44.898300 L 16.124900 42.260900 L 22.410500 39.674100 L 29.743900 37.141200 L 38.095800 34.665700 L 47.436800 32.251100 L 57.737800 29.900600 L 68.969300 27.617800 L 81.102100 25.406000 L 94.106800 23.268800 L 107.954200 21.209500 L 122.614900 19.231500 L 138.059700 17.338400 L 154.259100 15.533400 L 171.184000 13.820000 L 183.650300 12.675100 Z M 316.449500 28.862900 L 314.621500 28.934900 L 280.201600 30.720300 L 256.529900 32.268700 L 208.472800 10.583900 L 245.551600 7.951400 L 267.382500 6.722400 Z" transform="scale(1.000000,1.000000) translate(138.000000,138.000000)" fill="#000000" opacity="1.000000"></path>
        <path d="M 42.827987 68.250000 L 35.897987 28.920000 C 33.917987 17.580000 30.137987 15.150000 24.827987 15.150000 C 19.517987 15.150000 17.987987 18.030000 19.787987 28.290000 L 26.807987 68.250000 L 9.167987 68.250000 L 2.327987 29.370000 C -0.732013 11.730000 7.097987 1.650000 24.287987 1.650000 C 38.237987 1.650000 49.937987 8.310000 53.357987 27.840000 L 60.467987 68.250000 Z M 120.227987 53.850000 L 122.747987 68.250000 L 73.517987 68.250000 L 62.087987 3.000000 L 111.317987 3.000000 L 113.837987 17.400000 L 82.247987 17.400000 L 84.227987 28.470000 L 110.867987 28.470000 L 113.477987 42.870000 L 86.747987 42.870000 L 88.637987 53.850000 Z M 179.897987 68.250000 L 127.697987 68.250000 L 125.177987 53.850000 L 142.457987 53.850000 L 133.547987 3.000000 L 151.187987 3.000000 L 160.097987 53.850000 L 177.377987 53.850000 Z M 233.897987 68.250000 L 181.697987 68.250000 L 179.177987 53.850000 L 196.457987 53.850000 L 187.547987 3.000000 L 205.187987 3.000000 L 214.097987 53.850000 L 231.377987 53.850000 Z M 288.257987 53.850000 L 290.777987 68.250000 L 241.547987 68.250000 L 230.117987 3.000000 L 279.347987 3.000000 L 281.867987 17.400000 L 250.277987 17.400000 L 252.257987 28.470000 L 278.897987 28.470000 L 281.507987 42.870000 L 254.777987 42.870000 L 256.667987 53.850000 Z" transform="scale(1.000000,1.000000) translate(618.000000,203.000000)" fill="#20100d" opacity="1.000000"></path>
        <path d="M 62.513700 1.202400 L 65.476200 1.427600 L 71.268100 2.311600 L 76.858500 3.749000 L 82.217900 5.710600 L 87.317100 8.167000 L 92.126700 11.088900 L 96.617400 14.447000 L 100.759900 18.211900 L 104.524900 22.354400 L 107.883000 26.845100 L 110.804900 31.654700 L 113.261300 36.753900 L 115.222800 42.113400 L 116.660300 47.703700 L 117.544200 53.495700 L 117.769500 56.458100 L 117.845400 59.460000 L 117.769500 62.461800 L 117.544200 65.424200 L 116.660300 71.216200 L 115.222800 76.806500 L 113.261300 82.166000 L 110.804900 87.265200 L 107.883000 92.074800 L 104.524900 96.565500 L 100.759900 100.708000 L 96.617400 104.472900 L 92.126700 107.831000 L 87.317100 110.752900 L 82.217900 113.209300 L 76.858500 115.170900 L 71.268100 116.608300 L 65.476200 117.492300 L 62.513700 117.717500 L 59.511900 117.793500 L 56.510100 117.717500 L 53.547600 117.492300 L 47.755700 116.608300 L 42.165300 115.170900 L 36.805900 113.209300 L 31.706700 110.752900 L 26.897100 107.831000 L 22.406400 104.472900 L 18.263900 100.708000 L 14.498900 96.565500 L 11.140800 92.074800 L 8.218900 87.265200 L 5.762500 82.166000 L 3.801000 76.806500 L 2.363500 71.216200 L 1.479600 65.424200 L 1.254300 62.461800 L 1.178400 59.460000 L 1.254300 56.458100 L 1.479600 53.495700 L 2.363500 47.703700 L 3.801000 42.113400 L 5.762500 36.753900 L 8.218900 31.654700 L 11.140800 26.845100 L 14.498900 22.354400 L 18.263900 18.211900 L 22.406400 14.447000 L 26.897100 11.088900 L 31.706700 8.167000 L 36.805900 5.710600 L 42.165300 3.749000 L 47.755700 2.311600 L 53.547600 1.427600 L 56.510100 1.202400 L 59.511900 1.126500 Z M 68.810400 19.468800 L 65.543000 20.162300 L 62.393700 21.275500 L 59.400500 22.773700 L 56.601400 24.622000 L 54.034300 26.785700 L 51.737200 29.230000 L 49.748000 31.920000 L 46.646400 32.503000 L 43.725700 33.365000 L 40.993800 34.492100 L 38.458600 35.870100 L 36.128000 37.484900 L 34.010000 39.322300 L 32.112300 41.368300 L 30.443000 43.608700 L 29.010000 46.029500 L 27.821100 48.616500 L 26.884200 51.355700 L 26.207400 54.232900 L 25.798400 57.234100 L 25.665300 60.345000 L 25.815800 63.551700 L 26.258000 66.840000 L 26.999100 70.204800 L 28.030900 73.471100 L 29.338600 76.622400 L 30.907100 79.642500 L 32.721300 82.514800 L 34.766200 85.223200 L 37.026800 87.751200 L 39.488000 90.082500 L 42.134900 92.200700 L 44.952300 94.089600 L 47.925400 95.732700 L 51.038900 97.113700 L 54.278000 98.216300 L 57.627600 99.024100 L 61.072600 99.520800 L 64.598000 99.690000 L 68.229700 99.508300 L 71.659300 98.975200 L 74.876700 98.108300 L 77.871600 96.925300 L 80.634000 95.443700 L 83.153700 93.681400 L 85.420500 91.655900 L 87.424300 89.385000 L 89.154900 86.886200 L 90.602200 84.177300 L 91.756100 81.275900 L 92.606300 78.199600 L 93.142800 74.966300 L 93.355300 71.593400 L 93.233800 68.098800 L 92.768000 64.500000 L 91.673400 59.921600 L 90.035700 55.530900 L 87.893800 51.372300 L 85.286800 47.490000 L 82.253700 43.928300 L 78.833500 40.731500 L 75.065300 37.944000 L 70.988000 35.610000 L 72.457900 34.740900 L 73.870800 34.074300 L 76.365500 33.247500 L 78.151400 32.926800 L 78.678400 32.893100 L 78.832900 32.896800 L 78.880700 32.902400 L 78.908000 32.910000 L 72.158000 19.230000 Z M 58.152500 48.068100 L 60.834900 48.768200 L 63.475100 50.018900 L 64.754400 50.872100 L 65.993000 51.888700 L 67.181000 53.077200 L 68.308400 54.446100 L 69.365100 56.004200 L 70.341100 57.759800 L 71.226500 59.721600 L 72.011100 61.898200 L 72.684900 64.298100 L 73.238000 66.930000 L 73.580700 69.340700 L 73.739500 71.517500 L 73.726700 73.471300 L 73.554400 75.212800 L 73.235000 76.752800 L 72.780800 78.102300 L 72.204000 79.271900 L 71.516800 80.272500 L 70.731500 81.114800 L 69.860400 81.809800 L 67.909700 82.800900 L 65.762900 83.332100 L 63.518000 83.490000 L 60.821900 83.283200 L 58.115200 82.612500 L 55.471800 81.401700 L 54.196900 80.570000 L 52.965500 79.575000 L 51.786900 78.406900 L 50.670200 77.056400 L 49.624700 75.513900 L 48.659600 73.770000 L 47.784100 71.815100 L 47.007600 69.639800 L 46.339100 67.234600 L 45.788000 64.590000 L 45.443300 62.192100 L 45.279100 60.020500 L 45.283900 58.065500 L 45.446300 56.317000 L 45.754700 54.765200 L 46.197800 53.400200 L 46.763900 52.212200 L 47.441800 51.191200 L 48.219800 50.327300 L 49.086500 49.610800 L 51.040400 48.579800 L 53.211400 48.019200 L 55.508000 47.850000 Z" transform="scale(1.000000,1.000000) translate(496.000000,173.000000)" fill="#000000" opacity="1.000000"></path>
        <path d="M 36.460000 67.250000 L 12.430000 67.250000 L 1.000000 2.000000 L 18.640000 2.000000 L 22.150000 22.070000 C 41.590000 21.890000 56.530000 25.130000 60.040000 45.020000 C 62.830000 60.770000 54.190000 67.250000 36.460000 67.250000 Z M 42.940000 46.730000 C 41.140000 36.560000 36.730000 35.750000 24.490000 35.660000 L 27.820000 54.830000 L 33.940000 54.830000 C 37.990000 54.830000 44.470000 55.370000 42.940000 46.730000 Z M 101.350000 2.000000 L 122.410000 2.000000 L 111.430000 67.250000 L 90.280000 67.250000 L 57.340000 2.000000 L 78.850000 2.000000 L 84.700000 16.580000 L 100.450000 16.580000 Z M 90.460000 30.980000 L 97.390000 48.260000 L 98.380000 48.260000 L 99.460000 30.980000 Z M 188.830000 45.020000 C 191.620000 60.770000 182.980000 67.250000 165.250000 67.250000 L 141.220000 67.250000 L 129.790000 2.000000 L 147.430000 2.000000 L 151.210000 23.690000 C 159.220000 22.250000 160.300000 15.500000 163.540000 2.540000 L 182.530000 1.460000 C 179.470000 12.980000 177.490000 21.530000 173.440000 26.120000 C 181.180000 28.910000 186.940000 34.670000 188.830000 45.020000 Z M 171.820000 47.000000 C 170.290000 38.720000 164.710000 37.460000 159.310000 37.460000 L 153.550000 37.460000 L 156.610000 54.830000 L 162.730000 54.830000 C 166.780000 54.830000 173.260000 55.370000 171.820000 47.000000 Z" transform="scale(1.000000,1.000000) translate(302.000000,204.000000)" fill="#20100d" opacity="1.000000"></path>
    </g>
</svg>